<?xml version="1.0" encoding="utf-8"?>
<!-- Generator: Adobe Illustrator 17.0.1, SVG Export Plug-In . SVG Version: 6.00 Build 0)  -->
<!DOCTYPE svg PUBLIC "-//W3C//DTD SVG 1.1//EN" "http://www.w3.org/Graphics/SVG/1.1/DTD/svg11.dtd">
<svg version="1.1" id="Camada_1" xmlns="http://www.w3.org/2000/svg" xmlns:xlink="http://www.w3.org/1999/xlink" x="0px" y="0px"
	 width="494.018px" height="324px" viewBox="0 0 494.018 324" enable-background="new 0 0 494.018 324" xml:space="preserve">
<g>
	<g>
		<g>
			<path fill="#222221" d="M458.048,160.015c-0.144,0.144-0.288,0.288-0.432,0.576c0,0,0,0.144-0.144,0.144l-25.044,40.445
				l-24.612-39.437c-0.288-0.432-0.576-1.008-0.864-1.439l-0.144-0.144c-0.144-0.432-0.288-0.432-0.432-0.432
				c-1.871-2.015-4.606-3.454-7.484-3.454h-22.597v94.851h21.878v-27.204v-9.212v-12.954v-18.423l2.303,3.742l31.953,53.111
				l4.174-6.909l0,0l24.612-40.733l5.469-9.212v18.423v12.954v9.212v27.203h21.878v-94.851H465.82
				C462.797,156.273,459.918,157.712,458.048,160.015z"/>
			<path fill="#222221" d="M341.174,192.832h-7.053h-2.015h-6.477h-7.916c-2.015,0-3.598-0.72-5.182-2.303
				c-1.439-1.583-2.303-3.31-2.303-5.038c0-2.159,0.72-3.886,2.303-5.326c1.583-1.439,3.167-2.159,5.038-2.159h22.166
				c0.144,0,0.144,0,0.288,0c2.879,0,5.613-1.295,7.341-3.454l0,0l15.113-18.279h-44.763c-8.06,0-14.969,2.879-20.582,8.636
				c-5.757,5.757-8.636,12.522-8.636,20.726c0,8.06,2.879,14.969,8.636,20.582c5.757,5.757,12.666,8.78,20.582,8.78h9.787h2.447
				h2.159h9.212c2.015,0,3.742,0.72,5.182,2.159c1.439,1.439,2.159,3.167,2.159,5.038c0,2.015-0.72,3.598-2.159,5.038
				c-1.439,1.439-3.167,2.159-5.182,2.159h-32.96c-0.144,0-0.144,0-0.432,0c-2.879,0-5.469,1.295-7.197,3.454l0,0l-15.257,18.567
				h55.702c8.06,0,14.969-2.879,20.582-8.492c5.757-5.613,8.492-12.522,8.492-20.582s-2.879-14.969-8.492-20.726
				C356.144,195.71,349.234,192.832,341.174,192.832z"/>
			<path fill="#222221" d="M255.247,156.273L255.247,156.273c-3.742,0-6.765,1.871-8.348,4.894l0,0l-55.558,89.958h23.173
				l16.696-27.203h25.044v27.203h21.878v-91.109v-0.144c0.144-2.015,1.727-3.598,3.742-3.598h-25.908
				C255.678,156.273,255.39,156.273,255.247,156.273z M256.255,204.922h-13.386l13.386-21.734V204.922z"/>
		</g>
		<g>
			<path fill="#40608F" d="M35.319,227.088c-21.734-21.878-13.386-41.452,1.727-44.187c9.212-1.439,17.56,4.174,21.878,14.681
				c0.72,1.727,2.879,10.363,3.598,12.666c9.787,26.915,48.937,41.884,74.413,25.044C121.965,249.829,73.604,265.805,35.319,227.088
				z"/>
			<path fill="#A9D42D" d="M107.141,88.481c41.165,1.727,55.126,33.536,45.627,53.543c-6.045,11.946-18.711,14.393-33.536,7.053
				c-2.303-1.151-13.386-8.924-16.552-10.795C66.121,117.7,8.692,143.32,5.67,191.105C2.501,157.424,34.598,85.458,107.141,88.481z"
				/>
			<path fill="#C9002C" d="M69.574,181.461c-21.734-13.818-55.558-16.12-63.474,30.37C1.494,153.107,73.46,123.601,113.473,158
				c17.848,12.666,33.968,11.946,41.165-1.439C181.986,101.579,94.331,34.362,61.515,18.53
				c13.674,4.03,115.002,62.035,117.017,138.895c-1.439,30.801-15.113,54.119-32.96,61.027c-13.386,4.03-23.029,2.015-30.801-2.735
				C99.799,208.664,87.997,192.976,69.574,181.461z"/>
		</g>
	</g>
	<g>
		<path fill="#222221" d="M191.052,282.789h4.75v27.635h-4.75V282.789z"/>
		<path fill="#222221" d="M201.847,282.789h4.606l13.818,20.007v-20.007h4.606v27.635h-4.606l-13.818-20.007v20.007h-4.606V282.789z
			"/>
		<path fill="#222221" d="M230.778,282.789h8.492c2.447,0,4.606,0.288,6.477,1.008c1.871,0.576,3.454,1.583,4.75,2.735
			s2.303,2.591,2.879,4.318c0.72,1.727,1.008,3.598,1.008,5.757c0,4.318-1.295,7.772-3.742,10.219s-6.189,3.598-11.227,3.598h-8.492
			v-27.635H230.778z M239.558,306.394c3.31,0,5.757-0.864,7.484-2.591s2.447-4.174,2.447-7.197c0-1.439-0.288-2.879-0.72-4.03
			s-1.008-2.303-1.871-3.023c-0.864-0.864-1.871-1.439-3.167-2.015c-1.295-0.432-2.591-0.72-4.318-0.72h-4.03v19.575
			L239.558,306.394L239.558,306.394z"/>
		<path fill="#222221" d="M258.989,282.789h4.75v17.272c0,1.151,0.144,2.015,0.432,2.879s0.72,1.583,1.295,2.159
			c0.576,0.576,1.295,1.008,2.015,1.295s1.727,0.432,2.591,0.432s1.727-0.144,2.591-0.432s1.439-0.72,2.159-1.295
			c0.576-0.576,1.008-1.295,1.439-2.159c0.288-0.864,0.432-1.727,0.432-2.879v-17.272h4.75v17.272c0,1.871-0.288,3.454-0.864,4.75
			s-1.295,2.447-2.303,3.454c-1.008,0.864-2.159,1.583-3.598,2.015s-2.879,0.72-4.462,0.72s-3.023-0.288-4.462-0.72
			c-1.439-0.432-2.591-1.151-3.598-2.015c-1.008-0.864-1.727-2.015-2.303-3.454s-0.864-2.879-0.864-4.75V282.789L258.989,282.789z"
			/>
		<path fill="#222221" d="M288.639,304.091c1.295,0.72,2.591,1.439,3.886,1.871c1.439,0.432,2.879,0.72,4.318,0.72
			c1.871,0,3.167-0.288,4.03-1.008c0.864-0.72,1.295-1.583,1.295-2.735c0-0.72-0.288-1.439-0.72-1.871s-1.008-0.864-1.727-1.151
			c-0.72-0.288-1.583-0.576-2.447-0.864c-0.864-0.288-1.871-0.432-2.879-0.72c-1.008-0.288-1.871-0.576-2.879-1.008
			c-0.864-0.432-1.727-0.864-2.447-1.439c-0.72-0.576-1.295-1.295-1.727-2.159c-0.432-0.864-0.72-2.015-0.72-3.31
			c0-1.151,0.288-2.159,0.72-3.023c0.432-1.008,1.151-1.871,1.871-2.591c0.864-0.72,1.871-1.295,3.023-1.727
			s2.591-0.576,4.174-0.576c1.871,0,3.454,0.144,5.038,0.576c1.583,0.432,3.023,1.008,4.462,1.583l-1.727,3.742
			c-1.151-0.576-2.447-1.008-3.742-1.295c-1.295-0.288-2.591-0.432-4.03-0.432c-1.583,0-2.879,0.288-3.742,1.008
			c-0.864,0.72-1.295,1.583-1.295,2.591s0.432,1.871,1.151,2.303c0.72,0.576,1.727,1.008,2.879,1.295
			c1.151,0.288,2.447,0.72,3.742,1.008s2.591,0.72,3.742,1.295c1.151,0.576,2.159,1.439,2.879,2.447s1.151,2.447,1.151,4.174
			c0,1.151-0.288,2.159-0.72,3.167s-1.008,1.871-1.871,2.591c-0.864,0.72-1.871,1.295-3.167,1.727s-2.879,0.576-4.606,0.576
			c-2.015,0-4.03-0.288-5.901-0.864s-3.454-1.295-4.75-2.159L288.639,304.091z"/>
		<path fill="#222221" d="M319.872,286.963h-9.5v-4.174h23.749v4.174h-9.5v23.317h-4.75v-23.317H319.872z"/>
		<path fill="#222221" d="M338.296,282.789h11.946c1.871,0,3.454,0.288,4.75,0.72c1.295,0.432,2.303,1.151,3.023,1.871
			s1.295,1.727,1.727,2.735c0.288,1.008,0.576,2.015,0.576,3.167c0,1.727-0.432,3.167-1.295,4.606
			c-0.864,1.439-2.159,2.447-4.03,3.167l5.469,11.371h-5.182l-4.75-10.651h-0.144h-7.484v10.651h-4.606L338.296,282.789
			L338.296,282.789z M350.099,296.031c1.008,0,1.727-0.144,2.447-0.432s1.151-0.576,1.727-1.008c0.432-0.432,0.72-0.864,1.008-1.439
			c0.144-0.576,0.288-1.151,0.288-1.727s-0.144-1.295-0.288-1.727c-0.144-0.576-0.576-1.008-1.008-1.439s-1.008-0.72-1.727-1.008
			c-0.72-0.288-1.439-0.288-2.447-0.288h-7.197v9.356h7.197V296.031z"/>
		<path fill="#222221" d="M365.643,282.789h4.75v27.635h-4.75V282.789z"/>
		<path fill="#222221" d="M376.438,282.789h19.575v4.174h-14.825v7.484h13.386v3.886h-13.386v7.916h15.113v4.174h-19.719v-27.635
			L376.438,282.789L376.438,282.789z"/>
		<path fill="#222221" d="M402.634,304.091c1.295,0.72,2.591,1.439,3.886,1.871c1.439,0.432,2.879,0.72,4.318,0.72
			c1.871,0,3.167-0.288,4.03-1.008c0.864-0.72,1.295-1.583,1.295-2.735c0-0.72-0.288-1.439-0.72-1.871
			c-0.432-0.432-1.008-0.864-1.727-1.151c-0.72-0.288-1.583-0.576-2.447-0.864c-0.864-0.288-1.871-0.432-2.879-0.72
			c-1.008-0.288-1.871-0.576-2.879-1.008c-0.864-0.432-1.727-0.864-2.447-1.439c-0.72-0.576-1.295-1.295-1.727-2.159
			c-0.432-0.864-0.72-2.015-0.72-3.31c0-1.151,0.288-2.159,0.72-3.023c0.432-1.008,1.151-1.871,1.871-2.591
			c0.864-0.72,1.871-1.295,3.023-1.727c1.151-0.432,2.591-0.576,4.174-0.576c1.871,0,3.454,0.144,5.038,0.576
			c1.583,0.432,3.023,1.008,4.462,1.583l-1.727,3.742c-1.151-0.576-2.447-1.008-3.742-1.295s-2.591-0.432-4.03-0.432
			c-1.583,0-2.879,0.288-3.742,1.008c-0.864,0.72-1.295,1.583-1.295,2.591s0.432,1.871,1.151,2.303
			c0.72,0.576,1.727,1.008,2.879,1.295c1.151,0.288,2.447,0.72,3.742,1.008s2.591,0.72,3.742,1.295
			c1.151,0.576,2.159,1.439,2.879,2.447s1.151,2.447,1.151,4.174c0,1.151-0.288,2.159-0.72,3.167s-1.008,1.871-1.871,2.591
			c-0.864,0.72-1.871,1.295-3.167,1.727c-1.295,0.432-2.879,0.576-4.606,0.576c-2.015,0-4.03-0.288-5.901-0.864
			s-3.454-1.295-4.75-2.159L402.634,304.091z"/>
	</g>
</g>
<image overflow="visible" width="513" height="711" xlink:href="Gorro-Natal.png"  transform="matrix(0.1779 0 0 0.1779 274.6518 108.6274)">
</image>
</svg>
